<?xml version="1.0" encoding="UTF-8" standalone="no"?>
<!-- Created with Inkscape (http://www.inkscape.org/) -->

<svg
   xmlns:dc="http://purl.org/dc/elements/1.1/"
   xmlns:cc="http://creativecommons.org/ns#"
   xmlns:rdf="http://www.w3.org/1999/02/22-rdf-syntax-ns#"
   xmlns:svg="http://www.w3.org/2000/svg"
   xmlns="http://www.w3.org/2000/svg"
   xmlns:xlink="http://www.w3.org/1999/xlink"
   xmlns:sodipodi="http://sodipodi.sourceforge.net/DTD/sodipodi-0.dtd"
   xmlns:inkscape="http://www.inkscape.org/namespaces/inkscape"
   inkscape:export-ydpi="240.00000"
   inkscape:export-xdpi="240.00000"
   inkscape:export-filename="./pdficon.png"
   sodipodi:docname="pdficon.svg"
   inkscape:version="0.91 r13725"
   sodipodi:version="0.32"
   id="svg249"
   height="128"
   width="128"
   inkscape:output_extension="org.inkscape.output.svg.inkscape"
   version="1.1">
  <defs
     id="defs3">
    <linearGradient
       inkscape:collect="always"
       id="linearGradient4291">
      <stop
         style="stop-color:#fefefe;stop-opacity:1"
         offset="0"
         id="stop4293" />
      <stop
         style="stop-color:#f2f2f2;stop-opacity:1"
         offset="1"
         id="stop4295" />
    </linearGradient>
    <linearGradient
       inkscape:collect="always"
       id="linearGradient3520">
      <stop
         style="stop-color:#000000;stop-opacity:0.41295547"
         offset="0"
         id="stop3522" />
      <stop
         style="stop-color:#000000;stop-opacity:0;"
         offset="1"
         id="stop3524" />
    </linearGradient>
    <linearGradient
       id="linearGradient3671">
      <stop
         style="stop-color:#ffffff;stop-opacity:1;"
         offset="0"
         id="stop3673" />
      <stop
         id="stop3691"
         offset="0.47533694"
         style="stop-color:#ffffff;stop-opacity:1;" />
      <stop
         style="stop-color:#ffffff;stop-opacity:0;"
         offset="1"
         id="stop3675" />
    </linearGradient>
    <linearGradient
       id="linearGradient3683">
      <stop
         id="stop3685"
         offset="0"
         style="stop-color:#f6f6f5;stop-opacity:1;" />
      <stop
         id="stop3689"
         offset="1"
         style="stop-color:#d3d7cf;stop-opacity:1" />
    </linearGradient>
    <linearGradient
       id="linearGradient4928">
      <stop
         style="stop-color:#fce94f;stop-opacity:1;"
         offset="0"
         id="stop4930" />
      <stop
         style="stop-color:#fce94f;stop-opacity:0;"
         offset="1"
         id="stop4932" />
    </linearGradient>
    <linearGradient
       id="linearGradient3702">
      <stop
         style="stop-color:black;stop-opacity:0;"
         offset="0"
         id="stop3704" />
      <stop
         id="stop3710"
         offset="0.5"
         style="stop-color:black;stop-opacity:1;" />
      <stop
         style="stop-color:black;stop-opacity:0;"
         offset="1"
         id="stop3706" />
    </linearGradient>
    <linearGradient
       id="linearGradient7167">
      <stop
         style="stop-color:#484848;stop-opacity:1;"
         offset="0"
         id="stop7169" />
      <stop
         style="stop-color:#ffffff;stop-opacity:1;"
         offset="1"
         id="stop7171" />
    </linearGradient>
    <radialGradient
       r="404.061"
       fy="1007.2775"
       fx="-573.76666"
       cy="1007.2775"
       cx="-573.76666"
       gradientTransform="matrix(0.593746,-0.07045529,0.03017666,0.259761,-263.4913,612.9045)"
       gradientUnits="userSpaceOnUse"
       id="radialGradient5797"
       xlink:href="#linearGradient3520"
       inkscape:collect="always" />
    <linearGradient
       inkscape:collect="always"
       xlink:href="#linearGradient4291"
       id="linearGradient4297"
       x1="57.452354"
       y1="40.840858"
       x2="78.577202"
       y2="15.56179"
       gradientUnits="userSpaceOnUse" />
  </defs>
  <sodipodi:namedview
     inkscape:window-y="0"
     inkscape:window-x="0"
     inkscape:window-height="1061"
     inkscape:window-width="1920"
     inkscape:document-units="px"
     inkscape:grid-bbox="true"
     showgrid="false"
     inkscape:current-layer="layer6"
     inkscape:cy="51.539015"
     inkscape:cx="256.01481"
     inkscape:zoom="2"
     inkscape:pageshadow="2"
     inkscape:pageopacity="0.0"
     borderopacity="0.25490196"
     bordercolor="#666666"
     pagecolor="#ffffff"
     id="base"
     inkscape:showpageshadow="false"
     inkscape:window-maximized="1"
     inkscape:snap-midpoints="true"
     inkscape:snap-smooth-nodes="true"
     fit-margin-top="0"
     fit-margin-left="0"
     fit-margin-right="0"
     fit-margin-bottom="0"
     units="px"
     width="128mm">
    <inkscape:grid
       type="xygrid"
       id="grid4281"
       originx="-48"
       originy="-5.863281" />
  </sodipodi:namedview>
  <metadata
     id="metadata4">
    <rdf:RDF>
      <cc:Work
         rdf:about="">
        <dc:format>image/svg+xml</dc:format>
        <dc:type
           rdf:resource="http://purl.org/dc/dcmitype/StillImage" />
        <dc:title></dc:title>
        <dc:subject>
          <rdf:Bag>
            <rdf:li>rich</rdf:li>
            <rdf:li>text</rdf:li>
            <rdf:li>document</rdf:li>
            <rdf:li>office</rdf:li>
            <rdf:li>word</rdf:li>
            <rdf:li>write</rdf:li>
          </rdf:Bag>
        </dc:subject>
        <cc:license
           rdf:resource="" />
        <dc:creator>
          <cc:Agent>
            <dc:title>Lapo Calamandrei</dc:title>
          </cc:Agent>
        </dc:creator>
        <dc:source />
        <dc:date />
        <dc:rights>
          <cc:Agent>
            <dc:title />
          </cc:Agent>
        </dc:rights>
        <dc:publisher>
          <cc:Agent>
            <dc:title />
          </cc:Agent>
        </dc:publisher>
        <dc:identifier />
        <dc:relation />
        <dc:language />
        <dc:coverage />
        <dc:description />
        <dc:contributor>
          <cc:Agent>
            <dc:title>Jakub Steiner</dc:title>
          </cc:Agent>
        </dc:contributor>
      </cc:Work>
    </rdf:RDF>
  </metadata>
  <g
     inkscape:groupmode="layer"
     id="layer6"
     inkscape:label="Shadow"
     transform="translate(-48,85.863336)">
    <g
       id="g4299"
       transform="matrix(4.1694872,0,0,4.1694872,-151.50019,-133.55185)">
      <path
         style="color:#000000;clip-rule:nonzero;display:inline;overflow:visible;visibility:visible;opacity:1;isolation:auto;mix-blend-mode:normal;color-interpolation:sRGB;color-interpolation-filters:linearRGB;solid-color:#000000;solid-opacity:1;fill:#505050;fill-opacity:1;fill-rule:nonzero;stroke:#505050;stroke-width:1;stroke-linecap:round;stroke-linejoin:round;stroke-miterlimit:4;stroke-dasharray:none;stroke-dashoffset:0;stroke-opacity:1;color-rendering:auto;image-rendering:auto;shape-rendering:auto;text-rendering:auto;enable-background:accumulate"
         d="m 55.507812,11.9375 0,29.699219 22.539063,0 0,-24.263672 -5.435547,-5.435547 -17.103516,0 z"
         id="path4273"
         inkscape:connector-curvature="0" />
      <path
         id="rect4268"
         d="m 55.507812,11.9375 0,29.699219 22.539063,0 0,-24.263672 -5.435547,-5.435547 -17.103516,0 z"
         style="color:#000000;clip-rule:nonzero;display:inline;overflow:visible;visibility:visible;opacity:1;isolation:auto;mix-blend-mode:normal;color-interpolation:sRGB;color-interpolation-filters:linearRGB;solid-color:#000000;solid-opacity:1;fill:url(#linearGradient4297);fill-opacity:1;fill-rule:nonzero;stroke:none;stroke-width:40;stroke-linecap:round;stroke-linejoin:round;stroke-miterlimit:4;stroke-dasharray:none;stroke-dashoffset:0;stroke-opacity:0.34883722;color-rendering:auto;image-rendering:auto;shape-rendering:auto;text-rendering:auto;enable-background:accumulate"
         inkscape:connector-curvature="0" />
      <rect
         y="14"
         x="47.847656"
         height="9.3125"
         width="22.25"
         id="rect4275"
         style="color:#000000;clip-rule:nonzero;display:inline;overflow:visible;visibility:visible;opacity:1;isolation:auto;mix-blend-mode:normal;color-interpolation:sRGB;color-interpolation-filters:linearRGB;solid-color:#000000;solid-opacity:1;fill:#e21e00;fill-opacity:1;fill-rule:nonzero;stroke:none;stroke-width:1;stroke-linecap:round;stroke-linejoin:round;stroke-miterlimit:4;stroke-dasharray:none;stroke-dashoffset:0;stroke-opacity:1;color-rendering:auto;image-rendering:auto;shape-rendering:auto;text-rendering:auto;enable-background:accumulate" />
      <text
         sodipodi:linespacing="125%"
         id="text4277"
         y="20.805298"
         x="59.11771"
         style="color:#000000;font-style:normal;font-variant:normal;font-weight:bold;font-stretch:normal;font-size:18.66033745px;line-height:125%;font-family:FreeSerif;-inkscape-font-specification:'FreeSerif Bold';text-indent:0;text-align:center;text-decoration:none;text-decoration-line:none;text-decoration-style:solid;text-decoration-color:#000000;letter-spacing:normal;word-spacing:normal;text-transform:none;direction:ltr;block-progression:tb;writing-mode:lr-tb;baseline-shift:baseline;text-anchor:middle;white-space:normal;clip-rule:nonzero;display:inline;overflow:visible;visibility:visible;opacity:1;isolation:auto;mix-blend-mode:normal;color-interpolation:sRGB;color-interpolation-filters:linearRGB;solid-color:#000000;solid-opacity:1;fill:#e21e00;fill-opacity:1;fill-rule:nonzero;stroke:none;stroke-width:1;stroke-linecap:round;stroke-linejoin:round;stroke-miterlimit:4;stroke-dasharray:none;stroke-dashoffset:0;stroke-opacity:1;color-rendering:auto;image-rendering:auto;shape-rendering:auto;text-rendering:auto;enable-background:accumulate"
         xml:space="preserve"><tspan
           style="font-style:normal;font-variant:normal;font-weight:normal;font-stretch:normal;font-size:6.22011232px;font-family:'Noto Mono';-inkscape-font-specification:'Noto Mono';fill:#ffffff;fill-opacity:1"
           y="20.805298"
           x="59.11771"
           id="tspan4279"
           sodipodi:role="line">PDF</tspan></text>
      <path
         style="fill:#f91d0a"
         inkscape:connector-curvature="0"
         id="path4463"
         d="m 64.025056,32.916647 c 0.431958,-0.846659 0.922873,-1.800572 1.315797,-2.75827 l 0,0 0.155363,-0.378059 c -0.51323,-1.953002 -0.820983,-3.520683 -0.546049,-4.534365 l 0,0 c 0.07401,-0.264278 0.380107,-0.424622 0.707357,-0.424622 l 0,0 0.199416,0.003 0.0366,0 c 0.44802,-0.0069 0.658981,0.563035 0.682918,0.784613 l 0,0 c 0.03953,0.369025 -0.131194,0.993566 -0.131194,0.993566 l 0,0 c 0,-0.252194 0.0099,-0.659713 -0.149301,-1.011365 l 0,0 c -0.185282,-0.406933 -0.362266,-0.650016 -0.520949,-0.688547 l 0,0 c -0.08011,0.05351 -0.157989,0.164319 -0.184668,0.37748 l 0,0 c -0.05525,0.298872 -0.07181,0.676122 -0.07181,0.870596 l 0,0 c 0,0.687086 0.135285,1.593975 0.401147,2.528854 l 0,0 c 0.05015,-0.144745 0.09429,-0.283814 0.129379,-0.41412 l 0,0 c 0.05451,-0.205361 0.40111,-1.566679 0.40111,-1.566679 l 0,0 c 0,0 -0.08733,1.812117 -0.209339,2.360404 l 0,0 c -0.02614,0.115865 -0.05499,0.230457 -0.08502,0.347752 l 0,0 c 0.438405,1.224949 1.144835,2.318242 1.987555,3.105095 l 0,0 c 0.332271,0.310532 0.751912,0.560912 1.149083,0.78913 l 0,0 c 0.867353,-0.123935 1.665942,-0.182467 2.332181,-0.175091 l 0,0 c 0.883916,0.01166 1.53274,0.14239 1.795475,0.401186 l 0,0 c 0.128645,0.125788 0.180844,0.277714 0.197061,0.448019 l 0,0 c 0.0038,0.06625 -0.02842,0.221925 -0.03787,0.260997 l 0,0 c 0.0095,-0.04729 0.0095,-0.279877 -0.700099,-0.506358 l 0,0 c -0.558828,-0.178644 -1.604708,-0.173084 -2.859696,-0.0395 l 0,0 c 1.451585,0.710176 2.865758,1.063024 3.313932,0.851485 l 0,0 c 0.109575,-0.0534 0.242464,-0.235477 0.242464,-0.235477 l 0,0 c 0,0 -0.07899,0.35891 -0.135709,0.448637 l 0,0 c -0.07239,0.09748 -0.214398,0.203083 -0.349027,0.238681 l 0,0 c -0.707781,0.188838 -2.550167,-0.24814 -4.156303,-1.165878 l 0,0 c -1.794472,0.26428 -3.765195,0.752492 -5.344885,1.270625 l 0,0 c -1.552354,2.72051 -2.719428,3.969977 -3.668864,3.49466 l 0,0 -0.349064,-0.175516 c -0.141888,-0.08115 -0.163548,-0.27872 -0.130731,-0.439604 l 0,0 c 0.110692,-0.541569 0.789787,-1.357263 2.153883,-2.171797 l 0,0 c 0.146831,-0.08884 0.800868,-0.434661 0.800868,-0.434661 l 0,0 c 0,0 -0.484196,0.468636 -0.597629,0.560603 l 0,0 c -1.088776,0.892217 -1.892346,2.014699 -1.872308,2.449861 l 0,0 0.004,0.03796 c 0.92488,-0.131812 2.311871,-2.014312 4.094992,-5.503259 m 0.565084,0.289337 c -0.297832,0.560912 -0.588944,1.080976 -0.857702,1.558493 l 0,0 c 1.486681,-0.622881 3.086795,-1.02148 4.609961,-1.304638 l 0,0 c -0.204706,-0.141349 -0.403426,-0.291035 -0.59041,-0.449256 l 0,0 C 66.913221,32.300452 66.27374,31.41449 65.810199,30.482197 l 0,0 c -0.29397,0.791988 -0.643535,1.633588 -1.220045,2.723792" />
      <path
         id="rect4283"
         d="m 72.654297,11.980469 0,5.259765 5.259765,0 -5.259765,-5.259765 z"
         style="color:#000000;clip-rule:nonzero;display:inline;overflow:visible;visibility:visible;opacity:1;isolation:auto;mix-blend-mode:normal;color-interpolation:sRGB;color-interpolation-filters:linearRGB;solid-color:#000000;solid-opacity:1;fill:#ffffff;fill-opacity:1;fill-rule:nonzero;stroke:#505050;stroke-width:1;stroke-linecap:round;stroke-linejoin:round;stroke-miterlimit:4;stroke-dasharray:none;stroke-dashoffset:0;stroke-opacity:1;color-rendering:auto;image-rendering:auto;shape-rendering:auto;text-rendering:auto;enable-background:accumulate"
         inkscape:connector-curvature="0" />
      <path
         style="color:#000000;clip-rule:nonzero;display:inline;overflow:visible;visibility:visible;opacity:1;isolation:auto;mix-blend-mode:normal;color-interpolation:sRGB;color-interpolation-filters:linearRGB;solid-color:#000000;solid-opacity:1;fill:#f3f3f3;fill-opacity:1;fill-rule:nonzero;stroke:none;stroke-width:1;stroke-linecap:round;stroke-linejoin:round;stroke-miterlimit:4;stroke-dasharray:none;stroke-dashoffset:0;stroke-opacity:1;color-rendering:auto;image-rendering:auto;shape-rendering:auto;text-rendering:auto;enable-background:accumulate"
         d="m 72.654297,11.980469 0,5.259765 5.259765,0 -5.259765,-5.259765 z"
         id="path4289"
         inkscape:connector-curvature="0" />
    </g>
  </g>
  <g
     style="display:inline"
     inkscape:groupmode="layer"
     inkscape:label="Base"
     id="layer1"
     transform="translate(-48,85.863336)" />
  <g
     inkscape:groupmode="layer"
     id="layer5"
     inkscape:label="Text"
     style="display:inline"
     transform="translate(-48,85.863336)" />
</svg>
